<?xml version="1.0" encoding="utf-8"?>
<!-- Generator: Adobe Illustrator 24.1.0, SVG Export Plug-In . SVG Version: 6.00 Build 0)  -->
<svg version="1.1" id="圖層_1" xmlns="http://www.w3.org/2000/svg" xmlns:xlink="http://www.w3.org/1999/xlink" x="0px" y="0px"
	 viewBox="0 0 800 800" style="enable-background:new 0 0 800 800;" xml:space="preserve">
<style type="text/css">
	.st0{fill:url(#SVGID_1_);}
	.st1{fill:#FFFFFF;}
	.st2{fill:url(#SVGID_2_);}
	.st3{fill:url(#SVGID_3_);}
	.st4{fill:url(#SVGID_4_);}
	.st5{fill:url(#SVGID_5_);}
	.st6{fill:url(#SVGID_6_);}
	.st7{fill:url(#SVGID_7_);}
	.st8{fill:url(#SVGID_8_);}
	.st9{fill:url(#SVGID_9_);}
	.st10{fill:url(#SVGID_10_);}
	.st11{fill:url(#SVGID_11_);}
	.st12{fill:url(#SVGID_12_);}
	.st13{fill:url(#SVGID_13_);}
</style>
<g>
	
		<linearGradient id="SVGID_1_" gradientUnits="userSpaceOnUse" x1="-440" y1="2" x2="-440" y2="802" gradientTransform="matrix(1 0 0 -1 0 -38)">
		<stop  offset="0" style="stop-color:#081B2E"/>
		<stop  offset="1" style="stop-color:#3B94A3"/>
	</linearGradient>
	<path class="st0" d="M-740-840h600c55.2,0,100,44.8,100,100v600c0,55.2-44.8,100-100,100h-600c-55.2,0-100-44.8-100-100v-600
		C-840-795.2-795.2-840-740-840z"/>
	<path class="st1" d="M-207.4-405.1l-60.5-34.9l60.5-34.9c6.6-3.8,8.8-12.2,5-18.7c-1.2-2.1-2.9-3.8-5-5l-370.6-214
		c-6.6-3.8-15-1.5-18.7,5.1c-1.2,2.1-1.8,4.4-1.8,6.8v69.9l-61.4-35.4c-6.6-3.8-15-1.5-18.8,5c-1.2,2.1-1.8,4.4-1.8,6.9v427.9
		c0,7.6,6.2,13.7,13.7,13.7c2.4,0,4.8-0.6,6.9-1.8l61.4-35.4v70.8c0,7.6,6.1,13.7,13.7,13.7c2.4,0,4.8-0.6,6.9-1.8l370.6-213.9
		c6.6-3.8,8.8-12.2,5-18.7C-203.5-402.2-205.3-403.9-207.4-405.1z M-351.5-393.2l-81.9-47.3l-82.7,47.8v-95.6"/>
</g>
<g>
	<path class="st1" d="M-1580-840h600c55.2,0,100,44.8,100,100v600c0,55.2-44.8,100-100,100h-600c-55.2,0-100-44.8-100-100v-600
		C-1680-795.2-1635.2-840-1580-840z"/>
	
		<linearGradient id="SVGID_2_" gradientUnits="userSpaceOnUse" x1="-1555.8772" y1="402" x2="-1003.1228" y2="402" gradientTransform="matrix(1 0 0 -1 -0.5 -38)">
		<stop  offset="0" style="stop-color:#3B94A3"/>
		<stop  offset="1" style="stop-color:#081B2E"/>
	</linearGradient>
	<path class="st2" d="M-1011.5-399.8l-69.6-40.2l69.6-40.2c7.6-4.4,10.1-14,5.8-21.6c-1.4-2.4-3.4-4.4-5.8-5.8l-426.7-246.4
		c-7.5-4.4-17.2-1.8-21.6,5.7c-1.4,2.4-2.1,5.2-2.1,7.9v80.5l-70.7-40.8c-7.6-4.4-17.2-1.8-21.6,5.8c-1.4,2.4-2.1,5.1-2.1,7.9v492.7
		c0,8.7,7.1,15.8,15.8,15.8c2.8,0,5.5-0.7,7.9-2.1l70.7-40.8v81.5c0,8.7,7.1,15.8,15.8,15.8c2.8,0,5.5-0.7,7.9-2.1l426.7-246.4
		c7.6-4.4,10.2-14,5.8-21.6C-1007.1-396.4-1009.1-398.4-1011.5-399.8z M-1177.5-386.1l-94.3-54.5l-95.3,55v-110.1L-1177.5-386.1
		L-1177.5-386.1z"/>
</g>
<g>
	<path class="st1" d="M100-840h600c55.2,0,100,44.8,100,100v600c0,55.2-44.8,100-100,100H100C44.8-40,0-84.8,0-140v-600
		C0-795.2,44.8-840,100-840z"/>
	
		<linearGradient id="SVGID_3_" gradientUnits="userSpaceOnUse" x1="218" y1="504.8363" x2="676.3444" y2="504.8363" gradientTransform="matrix(1 0 0 -1 -0.5 -38)">
		<stop  offset="0" style="stop-color:#081B2E"/>
		<stop  offset="1" style="stop-color:#154961"/>
	</linearGradient>
	<path class="st3" d="M312.4-384.4l-94.9,54.8v-410.6c0-8.7,7.1-15.8,15.8-15.8c2.8,0,5.5,0.7,7.9,2.1l426.7,246.4
		c7.6,4.4,10.1,14,5.8,21.6c-1.4,2.4-3.4,4.4-5.8,5.8l-71.1,41.1L312.4-603.4V-384.4z"/>
	
		<linearGradient id="SVGID_4_" gradientUnits="userSpaceOnUse" x1="123.63" y1="402.5286" x2="503" y2="402.5286" gradientTransform="matrix(1 0 0 -1 -0.5 -38)">
		<stop  offset="0" style="stop-color:#3B94A3"/>
		<stop  offset="1" style="stop-color:#154961"/>
	</linearGradient>
	<path class="st4" d="M407.6-440.5l94.9,54.8L146.8-180.5c-7.6,4.4-17.2,1.8-21.6-5.8c-1.4-2.4-2.1-5.1-2.1-7.9v-492.7
		c0-8.7,7.1-15.8,15.8-15.8c2.8,0,5.5,0.7,7.9,2.1l71.1,41.1V-331L407.6-440.5z"/>
	
		<linearGradient id="SVGID_5_" gradientUnits="userSpaceOnUse" x1="268.3117" y1="63.5628" x2="497.5001" y2="460.5248" gradientTransform="matrix(1 0 0 -1 -0.5 -38)">
		<stop  offset="7.000000e-02" style="stop-color:#081B2E"/>
		<stop  offset="1" style="stop-color:#3B94A3"/>
	</linearGradient>
	<path class="st5" d="M312.4-495.6v-109.5L668-399.8c7.6,4.4,10.1,14,5.8,21.6c-1.4,2.4-3.4,4.4-5.8,5.8L241.2-126.1
		c-7.5,4.4-17.2,1.8-21.6-5.7c-1.4-2.4-2.1-5.2-2.1-7.9v-82.1L502-386.1L312.4-495.6z"/>
</g>
<g>
	
		<linearGradient id="SVGID_6_" gradientUnits="userSpaceOnUse" x1="112.2169" y1="-343.8188" x2="214.247" y2="-520.5388" gradientTransform="matrix(1 0 0 -1 -0.5 -38)">
		<stop  offset="0" style="stop-color:#3B94A3"/>
		<stop  offset="1" style="stop-color:#081B2E"/>
	</linearGradient>
	<path class="st6" d="M259.3,633.9V283.1L160,224.6v438.5c0,13,13.8,21.1,24.8,14.6L259.3,633.9z"/>
	
		<linearGradient id="SVGID_7_" gradientUnits="userSpaceOnUse" x1="241.8193" y1="-191.8133" x2="429.6293" y2="-517.1032" gradientTransform="matrix(1 0 0 -1 -0.5 -38)">
		<stop  offset="0" style="stop-color:#3B94A3"/>
		<stop  offset="1" style="stop-color:#081B2E"/>
	</linearGradient>
	<path class="st7" d="M259.3,516.9v116.9l372.4-219.2c8.1-4.8,10.7-15.2,5.9-23.3c-1.5-2.4-3.5-4.5-5.9-5.9L184.8,122.3
		c-11-6.5-24.8,1.6-24.8,14.6v87.7L457.9,400L259.3,516.9z"/>
</g>
<g>
	<path class="st1" d="M-1580,0h600c55.2,0,100,44.8,100,100v600c0,55.2-44.8,100-100,100h-600c-55.2,0-100-44.8-100-100V100
		C-1680,44.8-1635.2,0-1580,0z"/>
	
		<linearGradient id="SVGID_8_" gradientUnits="userSpaceOnUse" x1="-1280" y1="-217.97" x2="-1280" y2="-217.75" gradientTransform="matrix(1 0 0 -1 -0.5 -38)">
		<stop  offset="0" style="stop-color:#081B2E"/>
		<stop  offset="0.51" style="stop-color:#154961"/>
		<stop  offset="1" style="stop-color:#3B94A3"/>
	</linearGradient>
	<path class="st8" d="M-1280.5,180c0.5-0.1,1-0.2,1.5-0.2h-1.5h-1.5C-1281.5,179.8-1281,179.9-1280.5,180z"/>
	
		<linearGradient id="SVGID_9_" gradientUnits="userSpaceOnUse" x1="-1280.0187" y1="-752.0698" x2="-1280.0187" y2="-236.4301" gradientTransform="matrix(1 0 0 -1 -0.5 -38)">
		<stop  offset="0" style="stop-color:#081B2E"/>
		<stop  offset="0.51" style="stop-color:#154961"/>
		<stop  offset="1" style="stop-color:#3B94A3"/>
	</linearGradient>
	<path class="st9" d="M-1004,456.2c0-95.5-49.2-184.2-130.2-234.7l-20.2,34.6c-2,3.5-6.5,4.6-9.9,2.6c-1.1-0.6-2-1.5-2.6-2.6
		l-33.7-57.7l-33.7,57.7c-2,3.5-6.5,4.6-9.9,2.6c-1.1-0.6-2-1.5-2.6-2.6l-33.7-57.7l-33.7,57.7c-2,3.5-6.5,4.6-9.9,2.6
		c-1.1-0.6-2-1.5-2.6-2.6l-33.7-57.7l-33.7,57.7c-2,3.5-6.5,4.6-9.9,2.6c-1.1-0.6-2-1.5-2.6-2.6l-20.2-34.6
		c-129.6,80.8-169.2,251.4-88.4,381c22.3,35.8,52.6,66,88.4,88.4l20.2-34.6c2-3.5,6.5-4.6,9.9-2.6c1.1,0.6,2,1.5,2.6,2.6l33.7,57.7
		l33.7-57.7c2-3.5,6.5-4.6,9.9-2.6c1.1,0.6,2,1.5,2.6,2.6l33.7,57.7l33.7-57.7c2-3.5,6.5-4.6,9.9-2.6c1.1,0.6,2,1.5,2.6,2.6
		l33.7,57.7l33.7-57.7c2-3.5,6.5-4.6,9.9-2.6c1.1,0.6,2,1.5,2.6,2.6l20.2,34.6C-1053.2,640.4-1004,551.7-1004,456.2z"/>
	
		<linearGradient id="SVGID_10_" gradientUnits="userSpaceOnUse" x1="-1280" y1="-770.75" x2="-1280" y2="-770.53" gradientTransform="matrix(1 0 0 -1 -0.5 -38)">
		<stop  offset="0" style="stop-color:#081B2E"/>
		<stop  offset="0.51" style="stop-color:#154961"/>
		<stop  offset="1" style="stop-color:#3B94A3"/>
	</linearGradient>
	<path class="st10" d="M-1280.5,732.5c-0.5,0.1-1,0.2-1.5,0.2h1.5h1.5C-1279.5,732.7-1280,732.6-1280.5,732.5z"/>
	<path class="st1" d="M-1335.9,501.4l-39.2,22.6V354.4c0-3.6,2.9-6.5,6.5-6.5c1.1,0,2.3,0.3,3.3,0.9l176.2,101.8
		c3.1,1.8,4.2,5.8,2.4,8.9c-0.6,1-1.4,1.8-2.4,2.4l-29.4,17l-117.5-67.8V501.4z"/>
	<path class="st1" d="M-1257.7,456.3l39.2,22.6l-146.9,84.8c-3.1,1.8-7.1,0.7-8.9-2.4c-0.6-1-0.9-2.1-0.9-3.3V354.6
		c0-3.6,2.9-6.5,6.5-6.5c1.2,0,2.3,0.3,3.3,0.9l29.4,17v135.7L-1257.7,456.3z"/>
	
		<linearGradient id="SVGID_11_" gradientUnits="userSpaceOnUse" x1="-1514.5" y1="-230.25" x2="-1514.5" y2="-145.25" gradientTransform="matrix(1 0 0 -1 0 -38)">
		<stop  offset="0" style="stop-color:#081B2E"/>
		<stop  offset="0.51" style="stop-color:#154961"/>
		<stop  offset="1" style="stop-color:#3B94A3"/>
	</linearGradient>
	<circle class="st11" cx="-1514.5" cy="149.8" r="42.5"/>
	
		<linearGradient id="SVGID_12_" gradientUnits="userSpaceOnUse" x1="-1046.5" y1="-230.25" x2="-1046.5" y2="-145.25" gradientTransform="matrix(1 0 0 -1 0 -38)">
		<stop  offset="0" style="stop-color:#081B2E"/>
		<stop  offset="0.51" style="stop-color:#154961"/>
		<stop  offset="1" style="stop-color:#3B94A3"/>
	</linearGradient>
	<circle class="st12" cx="-1046.5" cy="149.8" r="42.5"/>
</g>
<g>
	
		<linearGradient id="SVGID_13_" gradientUnits="userSpaceOnUse" x1="-440" y1="-838" x2="-440" y2="-38" gradientTransform="matrix(1 0 0 -1 0 -38)">
		<stop  offset="0" style="stop-color:#081B2E"/>
		<stop  offset="1" style="stop-color:#3B94A3"/>
	</linearGradient>
	<path class="st13" d="M-740,0h600C-84.8,0-40,44.8-40,100v600c0,55.2-44.8,100-100,100h-600c-55.2,0-100-44.8-100-100V100
		C-840,44.8-795.2,0-740,0z"/>
	<path class="st1" d="M-440.5,180c0.5-0.1,1-0.2,1.5-0.2h-1.5h-1.5C-441.5,179.8-441,179.9-440.5,180z"/>
	<path class="st1" d="M-164,456.2c0-95.5-49.2-184.2-130.2-234.7l-20.2,34.6c-2,3.5-6.5,4.6-9.9,2.6c-1.1-0.6-2-1.5-2.6-2.6
		l-33.7-57.7l-33.7,57.7c-2,3.5-6.5,4.6-9.9,2.6c-1.1-0.6-2-1.5-2.6-2.6l-33.7-57.7l-33.7,57.7c-2,3.5-6.5,4.6-9.9,2.6
		c-1.1-0.6-2-1.5-2.6-2.6l-33.7-57.7l-33.7,57.7c-2,3.5-6.5,4.6-9.9,2.6c-1.1-0.6-2-1.5-2.6-2.6l-20.2-34.6
		c-129.6,80.8-169.2,251.4-88.4,381c22.3,35.8,52.6,66,88.4,88.4l20.2-34.6c2-3.5,6.5-4.6,9.9-2.6c1.1,0.6,2,1.5,2.6,2.6l33.7,57.7
		l33.7-57.7c2-3.5,6.5-4.6,9.9-2.6c1.1,0.6,2,1.5,2.6,2.6l33.7,57.7l33.7-57.7c2-3.5,6.5-4.6,9.9-2.6c1.1,0.6,2,1.5,2.6,2.6
		l33.7,57.7l33.7-57.7c2-3.5,6.5-4.6,9.9-2.6c1.1,0.6,2,1.5,2.6,2.6l20.2,34.6C-213.2,640.4-164,551.7-164,456.2z M-349,461.8
		l-29.4,17L-495.9,411v90.4l-0.2,0.1l0,0l78.3-45.2l39.2,22.6l-146.9,84.8c-3.1,1.8-7.1,0.7-8.9-2.4c-0.6-1-0.9-2.1-0.9-3.3V354.6
		c0-1.8,0.8-3.6,2.1-4.8c2.1-2.1,5.3-2.5,7.9-1L-349,450.5c3.1,1.8,4.2,5.8,2.4,8.9C-347.2,460.4-348.1,461.3-349,461.8L-349,461.8z
		"/>
	<path class="st1" d="M-440.5,732.5c-0.5,0.1-1,0.2-1.5,0.2h1.5h1.5C-439.5,732.7-440,732.6-440.5,732.5z"/>
	<circle class="st1" cx="-674.5" cy="149.8" r="42.5"/>
	<circle class="st1" cx="-206.5" cy="149.8" r="42.5"/>
</g>
</svg>
